<svg id="Layer_1" data-name="Layer 1" xmlns="http://www.w3.org/2000/svg" xmlns:xlink="http://www.w3.org/1999/xlink" viewBox="0 0 425.2 425.2"><defs><style>.cls-1{fill:#fff;}.cls-2{fill:url(#linear-gradient);}</style><linearGradient id="linear-gradient" x1="94.34" y1="210.43" x2="332.66" y2="210.43" gradientUnits="userSpaceOnUse"><stop offset="0" stop-color="#f16154"/><stop offset="1" stop-color="#dd2b66"/></linearGradient></defs><path class="cls-1" d="M181.5,197.94a12.91,12.91,0,0,0,6.67,2.11,10.36,10.36,0,0,0,6.67-2.34,2.5,2.5,0,0,0,.74-1.77,2.58,2.58,0,0,0-.74-1.77,2.52,2.52,0,0,0-1.76-.73,2.92,2.92,0,0,0-1.77.73c.56-.44-.05,0-.17.1s-.39.22-.59.32l-.22.11.21-.09c0,.08-.55.19-.63.21a5.13,5.13,0,0,1-.65.16l-.17,0,.17,0a11.83,11.83,0,0,1-1.25.05c-.14,0-.52,0-.62-.05l.14,0-.35-.07a8.19,8.19,0,0,1-1.2-.33c-.15-.05-.9-.23-.23-.07a2.71,2.71,0,0,1-.49-.22,11.68,11.68,0,0,1-1.24-.71,2.52,2.52,0,0,0-3.42.9,2.56,2.56,0,0,0,.9,3.42Z"/><path class="cls-2" d="M213.5,97.43c-65.81,0-119.16,47.84-119.16,106.84A98.66,98.66,0,0,0,114,263.1c-1.63,19.5-6.33,47-19.7,60.33,0,0,40.85-5.73,68.52-22.44l.09,0c11.36-7.4,22.74-15,25.09-16.95,1.83-1.6,4.5-2.79,6.35-1.68,1.44.67,3.44,1.55,4.17,3.72.44,2.06,2.82,5.31-20.1,20.25,12.77,4.19,20.65,4.74,35,4.74,65.81,0,119.16-47.83,119.16-106.83S279.31,97.43,213.5,97.43Z"/><rect class="cls-1" x="202.01" y="191.15" width="15.12" height="12.38" transform="translate(-71.13 261.12) rotate(-56.08)"/><rect class="cls-1" x="189.73" y="208.95" width="15.12" height="12.38" transform="translate(-91.33 258.8) rotate(-56.08)"/><rect class="cls-1" x="214.08" y="173.2" width="15.12" height="12.38" transform="translate(-50.9 263.21) rotate(-56.08)"/><path class="cls-1" d="M160.66,201.2a20.07,20.07,0,0,0,36.12,16.26l31.54-48.39a8.08,8.08,0,0,1,13.53,8.82L210.3,226.28A36.16,36.16,0,0,1,145.16,197a7.82,7.82,0,0,1,9.75-5.63A7.93,7.93,0,0,1,160.66,201.2Z"/><path class="cls-1" d="M275.62,220.52l-5,26.6A35,35,0,0,1,229.9,275a33.69,33.69,0,0,1-14.34-6.38,7.71,7.71,0,0,1-1.51-10.94A7.9,7.9,0,0,1,225,256a17.48,17.48,0,0,0,7.77,3.53,19.5,19.5,0,0,0,21.6-11.79,33.58,33.58,0,0,1-42.08-13.21,36.43,36.43,0,0,1-5.3-27A38.21,38.21,0,0,1,221.79,184a34.37,34.37,0,0,1,26.29-6,33.06,33.06,0,0,1,18,9.59,7.84,7.84,0,0,1,8.71-4.59,7.67,7.67,0,0,1,6.16,9l-5.33,28.46Zm-15.27-3a22.6,22.6,0,0,0-2.7-15.6,18.12,18.12,0,0,0-12.44-8.69,17.42,17.42,0,0,0-14.3,3.69,21.33,21.33,0,0,0-8.45,13.51c-1.13,6,.14,11.87,3,15.8a17.65,17.65,0,0,0,12.06,8.32,18.38,18.38,0,0,0,14.68-3.31A22.15,22.15,0,0,0,260.35,217.51Z"/><path class="cls-1" d="M248,162.5c10.94,0,11-17,0-17s-10.95,17,0,17Z"/><path class="cls-1" d="M136.84,201.6c-2.2-7.61,2.36-14.57,9.08-18s11.87-1.17,18,2.17c3,1.62,5.62-2.92,2.65-4.54-3.68-2-7.15-4.41-11.46-4.78a22.31,22.31,0,0,0-13.2,3.38c-8,4.89-12.83,13.89-10.14,23.18.94,3.24,6,1.87,5.07-1.39Z"/><path class="cls-1" d="M235.8,132.67a2.24,2.24,0,0,0,0-.52,2.2,2.2,0,0,0-2-1.85,14.5,14.5,0,0,0-13.08,6.19,15.2,15.2,0,0,0-1.58,14.63,2.17,2.17,0,0,0,2.84,1.19,2.21,2.21,0,0,0,1.15-2.89,10.73,10.73,0,0,1,1.12-10.34,10.25,10.25,0,0,1,9.25-4.38A2.16,2.16,0,0,0,235.8,132.67Z"/><path class="cls-1" d="M211.54,129.79a23.43,23.43,0,0,0-3.19,20.6,2.17,2.17,0,0,0,2.72,1.46,2.21,2.21,0,0,0,1.41-2.77,19,19,0,0,1,2.59-16.7,18.16,18.16,0,0,1,14.68-7.82,2.17,2.17,0,0,0,2.12-2.24l0-.32a2.2,2.2,0,0,0-2.19-1.85A22.42,22.42,0,0,0,211.54,129.79Z"/><path class="cls-1" d="M240.73,140.2a1.27,1.27,0,0,0,0-.34,1.47,1.47,0,0,0-1.31-1.23,9.61,9.61,0,0,0-8.65,4.1,10,10,0,0,0-1,9.67,1.42,1.42,0,0,0,1.87.79c.73-.31,1.81-1.22,1.5-2-.49-2.49-.48-4.48.93-6.48s2.53-2.72,5-2.53C239.75,142.28,240.67,141,240.73,140.2Z"/></svg>