<?xml version="1.0" encoding="utf-8"?>
<!-- Generator: Adobe Illustrator 24.1.1, SVG Export Plug-In . SVG Version: 6.00 Build 0)  -->
<svg version="1.1" id="Layer_2_1_" xmlns="http://www.w3.org/2000/svg" xmlns:xlink="http://www.w3.org/1999/xlink" x="0px" y="0px"
	 viewBox="0 0 1200 1200" style="enable-background:new 0 0 1200 1200;" xml:space="preserve">
<style type="text/css">
	.st0{fill:#313238;}
	.st1{fill:#DC2B66;}
	.st2{fill:#D8417B;}
	.st3{fill:#EF9673;}
	.st4{fill:#CECECE;}
	.st5{fill:#DDDDDD;}
	.st6{fill:#E5E5E5;}
	.st7{fill:#F06154;}
	.st8{fill:#774A9D;}
	.st9{fill:#FFFFFF;}
	.st10{fill:#1B1C1E;}
	.st11{fill:#A02755;}
</style>
<path class="st0" d="M757.2,192.6L757.2,192.6c0,72.4-58.9,131.3-131.3,131.3H224.7c-72.4,0-131.3-58.9-131.3-131.3l0,0
	c0-72.4,58.9-131.3,131.3-131.3h401.2C698.3,61.3,757.2,119.8,757.2,192.6z"/>
<path class="st1" d="M1022.1,1117.1l-158.3-109.4c0,0-46.3-63.9-75.3-65.1c-0.2,16.8,0.4,132.8,5.6,174.5h152.6H1022.1z"/>
<path class="st2" d="M1022.1,1117.1h15.3v-199l-128.1-21.2l-121,45.8c5.7,13,35.8,99,100.3,174.4H1022.1v-13.9V1117.1z"/>
<path class="st3" d="M752.7,649.2c-10.4-0.2-10.4,15.8-10.4,15.8c-5-15-114.8-288.1-114.8-288.1s-22.7,9.6,3.5,61.3
	c-8.5,5-32.1,23.9-22.4,54.3c7.4,22.8,23.5,30.9,33.5,30.9c-1.7,17.1,34.9,191.8,39.7,200.2c11.2,19.8,32.8,41.4,45.5,41.9
	c20.3,1,70.4-25.7,82.8-39.7C822.6,711.8,772.3,649.5,752.7,649.2z"/>
<path class="st4" d="M903.9,552.8c-49.5-44.2-170.4,61.6-168,79.9c2.3,18.3,67.4,84.6,86.5,79C841.5,706.2,942.9,587.4,903.9,552.8z
	"/>
<path class="st5" d="M1037.5,560.1c-22-35.7-54.3-58.7-100.6-58.7c-160.6,0-165.2,418.1-148.5,441.4
	c14.9,20.6,192.1,25.9,249.1,11.7"/>
<path class="st3" d="M1037.5,712.7l-16.9,6.9c1.5,5.4,7.9,35.4,16.9,68.6"/>
<path class="st6" d="M1037.5,560.1c-11.2-8.3-22.6-15.3-33.1-11c-60.6,25.3-17.4,177.2,0,182.8c5.6,1.8,18.3,0,33.1-3.9"/>
<path class="st3" d="M967.7,538c0,13.3-73.7,16.2-73.7,0v-90.6h73.7V538z"/>
<ellipse transform="matrix(0.3697 -0.9292 0.9292 0.3697 200.6345 1113.5425)" class="st3" cx="921.1" cy="408.9" rx="89.8" ry="66.7"/>
<ellipse transform="matrix(0.5823 -0.813 0.813 0.5823 50.7928 979.5575)" class="st3" cx="978.6" cy="440.4" rx="21.1" ry="14.8"/>
<path class="st0" d="M1040.6,397.8c0-12.3-11.5-25.8-13.6-41.3c-1.1-7.8,1.3-40.4-7.8-51.4c-19-22.8-30.2-18.1-44.7-23.5
	c-25.3-9.3-35-24.6-55.9-24.6c-23.7,0-33.3,12.3-50.3,12.3c-19.5,0-35.3-8.9-62.6-8.9c-14.5,0-33.5,19-33.5,35.8
	c0,39.7,36.9,34,36.9,43.6c0,6.7-2.2,12.1-2.2,21.2c0,12.1,15.7,19,24.6,19c27.3,0,30.9-3.4,30.9-3.4c5.4-10.8,12.3-20.8,20.6-29.6
	c1.1-1.1,18.8,11.3,47.6,12.3c23.7,0.8,40.4,5.4,40.4,16.4c0,7.8-2.9,31-2.7,37.5c0.2,6.5,2.5,10.7,3.9,10.7s2.2-2.1,11.4-2.1
	c9.7,0,10.5,12,12.2,12C1005.4,433.8,1040.6,425.9,1040.6,397.8z"/>
<polygon class="st0" points="714.9,376.8 714.9,148.6 601.1,262.7 "/>
<circle class="st9" cx="483.5" cy="262.7" r="11.9"/>
<circle class="st9" cx="544.6" cy="262.7" r="11.9"/>
<circle class="st9" cx="606.4" cy="262.7" r="11.9"/>
<g>
	<path class="st5" d="M444.6,289.7v-35.3c0-7.4-6-13.4-13.4-13.4H395H186.8h-36.2c-7.4,0-13.4,6-13.4,13.4v198.8h307.5V289.7z"/>
	<path class="st4" d="M354.2,472.8H124.1c-7.9,0-14.3-6.4-14.3-14.3V451c0-2,1.6-3.6,3.6-3.6h240.8h90.5v25.4L354.2,472.8
		L354.2,472.8z"/>
	<path class="st10" d="M424.3,285.8V263c0-1-0.8-1.8-1.8-1.8H395H186.8h-27.5c-1,0-1.8,0.8-1.8,1.8v162.2c0,1,0.8,1.8,1.8,1.8h194.9
		h68.3c1,0,1.8-0.8,1.8-1.8L424.3,285.8L424.3,285.8z"/>
	<path class="st0" d="M298.6,269.5c-17.2,0-31.1,13.9-31.1,31.1v0.8l-11.6,7c-5.9,3.6-9.4,9.8-9.4,16.7c0,6.9,3.5,13.1,9.4,16.6
		l11.6,7c0,0,0.1,19.4,0.4,33.8c0.1,8.1-7.9,13.9-15.5,11.1c-33.3-12-57.2-43.8-57.2-81.3v-51h-8.5h-27.5c-1,0-1.8,0.8-1.8,1.8
		v162.2c0,1,0.8,1.8,1.8,1.8h194.9h68.3c1,0,1.8-0.8,1.8-1.8v-3.9v-22.8V285.8v-16.3L298.6,269.5L298.6,269.5z"/>
	<path class="st5" d="M354.2,406.1v136.9c0,14.3,11.6,26,26,26h107.3c14.3,0,26-11.6,26-26V319.5c0-14.3-11.6-26-26-26h-39.8h-93.5
		V406.1z"/>
	<path class="st4" d="M354.2,523.6v19.3c0,14.3,11.6,26,26,26h107.3c14.3,0,26-11.6,26-26v-19.3H354.2z"/>
	<path class="st1" d="M374.5,405.1v94.3c0,1.6,1.3,2.8,2.8,2.8h112.9c1.6,0,2.8-1.3,2.8-2.8V323.7c0-5.4-4.4-9.8-9.8-9.8h-33h-76
		L374.5,405.1z"/>
	<path class="st11" d="M479.4,485.5c-35.9,0-66.6-22.4-78.8-53.9c-1.9-4.9,1.7-10.1,6.9-10.1h27.2c16.3,0,29.7-12.6,31-28.6
		l10.9-6.8c5.7-3.6,9.1-9.7,9.1-16.5c0-6.8-3.8-13.1-9.5-16.7l-7.3-4.6c-1.9-1.2-3-3.3-3-5.5v-28.8h-15.5h-55.6h-20.4l0.3,91.2v16.3
		v78c0,1.6,1.3,2.8,2.8,2.8h112.9c1.6,0,2.8-1.3,2.8-2.8v-13.9L479.4,485.5z"/>
	<path class="st9" d="M467.9,366.8l-18.4-11.6v-54.7c0-8.2-6.6-14.8-14.8-14.8H298.6c-8.2,0-14.8,6.6-14.8,14.8v10l-19.5,11.8
		c-2,1.2-2,4.2,0,5.4l19.5,11.7v50.9c0,8.2,6.6,14.8,14.8,14.8h136.1c8.2,0,14.8-6.6,14.8-14.8v-6.6l18.4-11.5
		C469.9,370.9,469.9,368.1,467.9,366.8L467.9,366.8z"/>
	<g>
		<circle class="st7" cx="366" cy="345.4" r="10.9"/>
		
			<ellipse transform="matrix(0.1602 -0.9871 0.9871 0.1602 -70.9261 607.5137)" class="st7" cx="321.6" cy="345.4" rx="10.9" ry="10.9"/>
		<circle class="st7" cx="410.5" cy="345.4" r="10.9"/>
	</g>
</g>
</svg>
